SplineFontDB: 3.2
FontName: IvaMiskovic
FullName: IvaMiskovic
FamilyName: IvaMiskovic
Weight: Regular
Copyright: Copyright (c) 2024, Iva
UComments: "2024-3-16: Created with FontForge (http://fontforge.org)"
Version: 001.000
ItalicAngle: 0
UnderlinePosition: -100
UnderlineWidth: 50
Ascent: 800
Descent: 200
InvalidEm: 0
LayerCount: 2
Layer: 0 0 "Stra+AX4A-nji" 1
Layer: 1 0 "Prednji" 0
XUID: [1021 523 1179317225 16779]
StyleMap: 0x0000
FSType: 0
OS2Version: 0
OS2_WeightWidthSlopeOnly: 0
OS2_UseTypoMetrics: 1
CreationTime: 1710610567
ModificationTime: 1713271592
OS2TypoAscent: 0
OS2TypoAOffset: 1
OS2TypoDescent: 0
OS2TypoDOffset: 1
OS2TypoLinegap: 90
OS2WinAscent: 0
OS2WinAOffset: 1
OS2WinDescent: 0
OS2WinDOffset: 1
HheadAscent: 0
HheadAOffset: 1
HheadDescent: 0
HheadDOffset: 1
MarkAttachClasses: 1
DEI: 91125
Encoding: iso8859-2
UnicodeInterp: none
NameList: AGL For New Fonts
DisplaySize: -48
AntiAlias: 1
FitToEm: 0
WinInfo: 0 39 14
BeginPrivate: 0
EndPrivate
BeginChars: 256 21

StartChar: A
Encoding: 65 65 0
Width: 600
Flags: HW
LayerCount: 2
Fore
SplineSet
231 416 m 1
 251.170898438 457.311523438 320.494140625 462.982421875 359 422 c 1
 362.907226562 484.135742188 349 560 329 628 c 1
 315.630859375 682.430664062 272.743164062 701.145507812 249 622 c 1
 237.322265625 567.770507812 218.498046875 488 231 416 c 1
216 124 m 1024
24 124 m 1
 57.3369140625 350.375 66.7783203125 454.604492188 167 676 c 1
 211 791 367 789 417 680 c 1
 463 614 583.670898438 144.639648438 582 122 c 0
 567.852539062 -69.7021484375 377 -18 372 124 c 0
 370.95703125 153.625 377.409179688 317.979492188 359 320 c 1
 335.184570312 353.420898438 286.743164062 396.650390625 233 326 c 1
 212.490234375 326 213.080078125 143.061523438 216 124 c 0
 235.779296875 -5.1220703125 43.2001953125 -79.43359375 24 124 c 1
EndSplineSet
Validated: 524321
EndChar

StartChar: I
Encoding: 73 73 1
Width: 202
Flags: HW
LayerCount: 2
Fore
SplineSet
22 66 m 1
 8.0751953125 345.844726562 25.0732421875 369.284179688 28 667 c 1
 39 846.048828125 166 829.556640625 173 666 c 1
 187 572 168.607421875 86.0498046875 167 64 c 0
 160 -32 31 -20 22 66 c 1
EndSplineSet
Validated: 524321
EndChar

StartChar: v
Encoding: 118 118 2
Width: 410
Flags: HW
LayerCount: 2
Fore
SplineSet
15 371 m 1
 39.9228515625 282.235351562 71 164 120 85 c 1
 177 -13 246 -18 301 85 c 1
 348 171 374.311523438 281.376953125 393 364 c 1
 409.722482293 424.7669277 302.612304688 434.61328125 278 374 c 1
 255.393554688 313.91015625 247 260 231 195 c 1
 218 156 202 152 180 197 c 1
 160 262 148.424804688 310.973632812 125 371 c 1
 104 429.88671875 1.99999887832 443.150778776 15 371 c 1
EndSplineSet
Validated: 524329
EndChar

StartChar: a
Encoding: 97 97 3
Width: 471
Flags: HW
LayerCount: 2
Fore
SplineSet
166 80 m 0
 238.047851562 83.2353515625 253.7421875 232.088867188 150 224 c 0
 58.64453125 216.876953125 60.375 75.2568359375 166 80 c 0
202 0 m 0
 -30.923828125 -12.595703125 -70 408 188 412 c 0
 257.985351562 413.084960938 339.157226562 349 339.157226562 349 c 1
 336.977539062 351.880859375 331 373 329 403 c 1
 329 451 426 463 439 401 c 1
 443.8671875 269.60546875 462.120117188 0 419 0 c 1
 351 0 l 1
 319.977539062 16.5439453125 342.8125 150.766601562 334 76 c 1
 334 76 344.418945312 7.701171875 202 0 c 0
EndSplineSet
Validated: 524325
EndChar

StartChar: M
Encoding: 77 77 4
Width: 694
Flags: HW
LayerCount: 2
Fore
SplineSet
22 115 m 1
 90.5126953125 399.415039062 98 682 106 725 c 1
 121.245117188 832.106445312 232 790 246 688 c 1
 268 530 261 538 306 392 c 1
 321 358 349 360 356 394 c 1
 356 394 398 552 428 704 c 1
 452 837 546 790 558 736 c 1
 579 705 659.33984375 151.51953125 666 116 c 0
 693 -28 544.991179065 -44.0011721522 524 114 c 0
 523.83278076 115.258663741 506 448 506 448 c 1
 501 491 483 458 481 448 c 1
 434 354 405.479492188 295.80078125 379 283 c 0
 345.745117188 266.923828125 308.537074087 266.685486677 279 284 c 0
 254.380859375 298.431640625 215 399 194 442 c 5
 178.583890904 466.336152693 170.669675449 468.391770901 164 442 c 5
 164 442 147.411493219 116.698131367 147 112 c 0
 133.896484375 -37.6064453125 8.4384765625 -46.0380859375 22 115 c 1
EndSplineSet
Validated: 524321
EndChar

StartChar: i
Encoding: 105 105 5
Width: 219
Flags: HW
LayerCount: 2
Fore
SplineSet
103 571 m 0
 32.45703125 544.7578125 -10.3935546875 459.172851562 101 458 c 0
 218.674804688 456.760742188 192.423828125 604.265625 103 571 c 0
40 65 m 1
 65.12890625 170.395507812 52.927734375 257.515625 32 402 c 1
 47 430 161 444 153 387 c 1
 86.11328125 258.557617188 161.794921875 130.08203125 182 65 c 0
 203.219726562 -3.3515625 62.57421875 -23.419921875 40 65 c 1
EndSplineSet
Validated: 524329
EndChar

StartChar: scaron
Encoding: 185 353 6
Width: 343
Flags: HW
LayerCount: 2
Fore
SplineSet
35 578 m 9
 35 578 31 507 119 472 c 0
 207 437 223 486 228 492 c 0
 237.232421875 503.079101562 268 584 268 584 c 1
 283 620 198 627 187 578 c 9
 177 506 l 17
 172 472 144 483 132 502 c 9
 91 582 l 17
 82 603 34 609 35 578 c 9
80 11 m 0
 -1.923828125 35.5263671875 -27.6689453125 236.860351562 97 175 c 0
 152.927734375 147.249023438 95 57 190 108 c 0
 309.850585938 172.340820312 63.134765625 187.775390625 26 243 c 0
 -0.318359375 282.138671875 1 390 160 436 c 0
 160 436 293.020507812 461.3046875 322 328 c 0
 342 236 205.04296875 272.256835938 199 288 c 0
 186.169921875 321.420898438 216.833007812 397.430664062 167 376 c 0
 136.559570312 362.909179688 94.3876953125 333.752929688 103 287 c 0
 110 249 326.006835938 265.999023438 310 128 c 0
 294 -9.9365234375 95.787109375 6.2734375 80 11 c 0
EndSplineSet
Validated: 524329
EndChar

StartChar: dcroat
Encoding: 240 273 7
Width: 393
Flags: HW
LayerCount: 2
Fore
SplineSet
114 103 m 0
 186.0546875 106.078125 195.56640625 297.430664062 104 248 c 0
 22.8564453125 204.196289062 41.822265625 99.9169921875 114 103 c 0
262 98 m 1049
280 83 m 1
 261 -71 -5 57 12 172 c 1
 26 343 209.609375 297.750976562 203 355 c 1
 205 479 l 1
 161 476 l 1
 91.4677734375 482.21875 88.9140625 534.452148438 160 542 c 1
 204 543 l 1
 202 617 l 1
 204 658 285 670 286 622 c 1
 287 551 l 1
 342 545 l 1
 388 543 398 487 341 479 c 1
 286 483 l 1
 280 83 l 1
EndSplineSet
Validated: 524321
EndChar

StartChar: ccaron
Encoding: 232 269 8
Width: 428
Flags: HW
LayerCount: 2
Fore
SplineSet
384 104 m 1
 383.836914062 106.546875 188.438476562 -124.17578125 61 91 c 0
 -17.0654296875 222.811523438 36 276 53 314 c 1
 68 336 168.630859375 499.673828125 360 334 c 0
 419.572265625 282.426757812 314.231445312 217.393554688 256 252 c 1
 -44.2861328125 429.493164062 122.451171875 -163.068359375 311 161 c 0
 349.826171875 227.732421875 465.232421875 183.47265625 384 104 c 1
77 541 m 1
 77 541 121 474 143 452 c 0
 160.881835938 434.118164062 223.828125 387.120117188 273 448 c 0
 315 500 320.559570312 542.206054688 321 545 c 0
 326.36328125 578.997070312 284.590820312 627.842773438 260 565 c 0
 251 542 256 553 238 498 c 1
 230 465.76171875 202 450 188 487 c 1
 160 547 l 1
 140.352539062 588.3359375 49 602 77 541 c 1
EndSplineSet
Validated: 524329
EndChar

StartChar: zcaron
Encoding: 190 382 9
Width: 400
Flags: HW
LayerCount: 2
Fore
SplineSet
93 485 m 1
 93 485 127.884765625 405.907226562 144 386 c 0
 161 365 189 342 234 390 c 0
 279 438 281.166992188 501.154296875 283 499 c 0
 284.522460938 497.2109375 274.5703125 575.891601562 230 520 c 0
 215.62109375 501.96875 223 484 205 429 c 1
 197 396.76171875 174 390.110351562 170 427 c 1
 148 510 l 17
 142 540 88 538 93 485 c 1
57 226 m 1
 -5 249 -1 324 61 346 c 1
 291 348 l 1
 377.391601562 345.920898438 356 292 313 248 c 1
 256.881835938 184.25 194.008789062 124.302734375 114 74 c 1
 198.239257812 94.380859375 257.08984375 152.598632812 328 133 c 1
 435 97 347.649414062 -0.9296875 351 0 c 1
 351 0 44.98828125 -0.2158203125 43 0 c 0
 -3 5 2 81 44 110 c 1
 103.549804688 177.3046875 174.094726562 222.508789062 244 269 c 1
 179.8828125 260.705078125 118.53515625 210.258789062 57 226 c 1
EndSplineSet
Validated: 524325
EndChar

StartChar: k
Encoding: 107 107 10
Width: 352
Flags: HW
LayerCount: 2
Fore
SplineSet
15 78 m 1
 57.9892578125 218.678710938 77.154296875 230.751953125 32 587 c 1
 41 680 165 662 159 589 c 1
 136.71875 485 128.28125 398 143 294 c 1
 201 406 l 5
 286 533 365 387 300 357 c 5
 216 315 218 308 203 213 c 1
 201 176 316 97 332 78 c 0
 374.96875 26.9736328125 263 -5 217 78 c 1
 130 193 l 1
 118.671875 152.450195312 112.026367188 123.836914062 124 78 c 1
 145 -24 -6 -18 15 78 c 1
EndSplineSet
Validated: 524321
EndChar

StartChar: o
Encoding: 111 111 11
Width: 434
Flags: HW
LayerCount: 2
Fore
SplineSet
161 118 m 4
 258.088867188 122.999023438 273.795898438 308.53515625 144 300 c 4
 28.2890625 292.390625 37.310546875 111.630859375 161 118 c 4
202 8 m 0
 -45 0 -82 428 187 436 c 0
 478.697599335 444.675021542 471.866962932 16.7406303784 202 8 c 0
EndSplineSet
Validated: 524321
EndChar

StartChar: Zcaron
Encoding: 174 381 12
Width: 630
Flags: HW
LayerCount: 2
Fore
SplineSet
75 550 m 1
 466 552 l 1
 588 550 652.787109375 433.202148438 512 360 c 1
 235 162 l 1
 182.517578125 117.462890625 188.69140625 107.993164062 229 90 c 1
 524 214 l 1
 649.736328125 207.014648438 581.571289062 -5.41796875 520 2 c 0
 516.028320312 2.478515625 92.6813362444 -1.08250415738 91 0 c 0
 -55 94 95.412109375 223.965820312 157 262 c 1
 334 346 l 1
 383.256835938 377.538085938 504 474 356 452 c 1
 75 350 l 1
 -2 368 11 536 75 550 c 1
155 746 m 1
 155 746 210.884765625 629.907226562 227 610 c 0
 244 589 314 556 359 604 c 0
 404 652 409.166992188 738.154296875 411 736 c 0
 412.522460938 734.2109375 387.5703125 837.891601562 343 782 c 0
 328.62109375 763.96875 335 711 317 656 c 1
 309 623.76171875 277 609.110351562 273 646 c 1
 229 762 l 1
 223 792 150 799 155 746 c 1
EndSplineSet
Validated: 524329
EndChar

StartChar: Scaron
Encoding: 169 352 13
Width: 392
Flags: HW
LayerCount: 2
Fore
SplineSet
137 11 m 0
 -71.7001953125 96.3427734375 46.0556640625 326.481445312 173 218 c 0
 220.463867188 177.439453125 152 57 247 108 c 0
 366.850585938 172.340820312 102.134765625 306.775390625 65 362 c 0
 38.681640625 401.138671875 40 509 199 555 c 0
 199 555 335.020507812 605.3046875 364 472 c 0
 384 380 249.404296875 390.09375 233 394 c 0
 191 404 277 485 224 490 c 0
 191.010742188 493.112304688 111.3203125 442.315429688 142 406 c 0
 160.432617188 384.181640625 394.18359375 281.819335938 367 128 c 0
 342.833984375 -8.7421875 152.25390625 4.7626953125 137 11 c 0
86 740 m 1
 86 740 141.884765625 623.907226562 158 604 c 0
 175 583 245 550 290 598 c 0
 335 646 340.166992188 732.154296875 342 730 c 0
 343.522460938 728.2109375 318.5703125 831.891601562 274 776 c 0
 259.62109375 757.96875 266 705 248 650 c 1
 240 617.76171875 208 603.110351562 204 640 c 1
 160 756 l 1
 154 786 81 793 86 740 c 1
EndSplineSet
Validated: 524329
EndChar

StartChar: Ccaron
Encoding: 200 268 14
Width: 502
Flags: HW
LayerCount: 2
Fore
SplineSet
432 98 m 1
 431.836914062 101.500976562 238.765625 -104.541015625 100 86 c 0
 -39.833984375 278.008789062 74 484 83 505 c 1
 92 522.822265625 223.516601562 689.3046875 415 535 c 0
 548.619140625 427.32421875 365.586914062 356.463867188 344 372 c 1
 0.6630859375 661.854492188 53.392578125 -137.106445312 362 174 c 0
 416.37109375 228.811523438 513.232421875 177.47265625 432 98 c 1
107 744 m 1
 107 744 162.885742188 677.373046875 177 656 c 0
 190.935546875 634.897460938 247.620117188 601.454101562 309 650 c 0
 360.60546875 690.815429688 379.595703125 749.200195312 380 752 c 0
 384.890625 785.884765625 331.622070312 827.842773438 295 780 c 0
 280.981445312 761.686523438 284 725 266 670 c 1
 258 655 234.284179688 670.221679688 220 708 c 1
 197 754 l 1
 184.747070312 803.981445312 83 810 107 744 c 1
EndSplineSet
Validated: 524329
EndChar

StartChar: cacute
Encoding: 230 263 15
Width: 509
Flags: HW
LayerCount: 2
Fore
SplineSet
310 621 m 1
 351 640 418.372070312 615.913085938 401 566 c 1
 399 538 314.198242188 551.76953125 301 489 c 1
 285 462 247.114257812 447.407226562 232 503 c 1
 232.07421875 551.83984375 269.931640625 595.514648438 310 621 c 1
428 104 m 1
 427.836914062 107.451171875 227.438476562 -95.798828125 100 90 c 4
 13.3486328125 216.333007812 81 307 98 345 c 1
 113 367 213.630541566 530.673461024 405 365 c 0
 464.572265625 313.426757812 344.231445312 233.393554688 286 268 c 1
 18 416 158.865320336 -54.4102228393 342 182 c 0
 397 253 509.232421875 183.47265625 428 104 c 1
EndSplineSet
Validated: 524321
EndChar

StartChar: Cacute
Encoding: 198 262 16
Width: 482
Flags: HW
LayerCount: 2
Fore
SplineSet
275 763 m 1
 316 782 392.372070312 748.913085938 375 699 c 1
 345.837890625 659.354492188 261 684 247 622 c 1
 231 595 185.114257812 579.407226562 170 635 c 1
 170.07421875 683.83984375 234.931640625 737.514648438 275 763 c 1
428 98 m 1
 427.836914062 101.500976562 247.765625 -106.541015625 109 84 c 0
 -30.833984375 276.008789062 68 436 81 457 c 1
 94.48046875 463.9609375 210.672851562 695.948242188 399 504 c 0
 451 451 386.671875 309.905273438 321 347 c 1
 -8.263671875 545.508789062 94.2734375 -135.959960938 369 168 c 0
 420.768554688 225.276367188 509.232421875 177.47265625 428 98 c 1
EndSplineSet
Validated: 524321
EndChar

StartChar: Dcroat
Encoding: 208 272 17
Width: 594
Flags: HW
LayerCount: 2
Fore
SplineSet
251 171 m 1
 414.25 149.326171875 444.756835938 257.743164062 454 406 c 1
 454.962890625 565.80859375 371.673828125 623.9609375 229 635 c 1
 229 453 l 1
 301 455 l 1
 350 454 371 358 295 349 c 1
 237 343 l 25
 251 171 l 1
140 111 m 1
 131 335 l 1
 84 341 l 1
 -5 348 -11 439 76 443 c 1
 131 445 l 1
 132 698 l 1
 134 883 581.991210938 698.282226562 559 438 c 1
 588.34375 59.8388671875 182 -120 140 111 c 1
EndSplineSet
Validated: 524321
EndChar

StartChar: e
Encoding: 101 101 19
Width: 517
Flags: HW
LayerCount: 2
Fore
SplineSet
248 291 m 0
 248 335.045898438 289 392 358 360 c 4
 393.739071681 343.425358061 400.999832895 271.000231789 358 240 c 0
 330.27734375 220.013671875 248 226 248 291 c 0
447 300 m 0
 455 448 299 461 299 461 c 1
 168 469 100 414 60 343 c 0
 -26.1720875364 190.044544623 70 11 267 9 c 0
 368 7.974609375 454 35 452 104 c 0
 449.721582626 182.605399396 368.596679688 159.703125 344 138 c 0
 310 108 159 81 139 189 c 0
 120.139912042 290.844474972 218 177 277 175 c 0
 404.961914062 170.662109375 443.481243681 234.903008104 447 300 c 0
EndSplineSet
Validated: 524329
EndChar

StartChar: V
Encoding: 86 86 20
Width: 662
Flags: HW
LayerCount: 2
Fore
SplineSet
8 699 m 1
 24 574 101 264 220 82 c 1
 277 -16 376 4 426 74 c 1
 528 209 641 583 652 694 c 1
 670 796 522 815 491 722 c 1
 468.393554688 661.91015625 408 402 348 242 c 1
 335 203 319 199 297 244 c 1
 252 400 189.424804688 662.973632812 166 723 c 1
 143 804 3 799 8 699 c 1
EndSplineSet
Validated: 524329
EndChar
